# xmcd
#
# Track frame offsets: 
#        150
#        16982
#        34337
#        63520
#        79600
#        95933
#        112673
#        129991
#        145246
#        162321
#        180021
#        199764
#        213985
#        231901
#        251061
#        267346
#        280060
#        302585
#
# Disc length: 4376 seconds
#
# Revision: 0
# Processed by: cddbd v1.5.2PL0 Copyright (c) Steve Scherf et al.
# Submitted via: ExactAudioCopy v0.95b3
#
DISCID=f5111612
DTITLE=Various Artist - Live Country! Volume 3
DYEAR=2007
DGENRE=Country
TTITLE0=Dolly Parton - The Grass Is Blue
TTITLE1=Keith Urban - Days Go By
TTITLE2=Jason Aldean - Why
TTITLE3=Tim McGraw - Real Good Man
TTITLE4=Mark Chestnutt - Bubba Shot The Jukebox
TTITLE5=The Wreckers - Leave The Pieces
TTITLE6=Blake Shelton - The Baby
TTITLE7=Little Big Town - Bones
TTITLE8=Joe Nichols - Brokenheartsville
TTITLE9=Taylor Swift - The Outside
TTITLE10=Dwight Yoakum - Blame The Vain
TTITLE11=Faith Hill - Stealing Kisses
TTITLE12=Kenny Rogers - I can't Unlove You
TTITLE13=Big and Rich - Save A Horse, Ride A Cowboy
TTITLE14=Rodney Atkins - Honesty
TTITLE15=Phil Vassar - It's A Crazy Life
TTITLE16=Jack Ingram - Ava Adele
TTITLE17=Dierks Bentley - Come A Little Closer
EXTD=
EXTT0=
EXTT1=
EXTT2=
EXTT3=
EXTT4=
EXTT5=
EXTT6=
EXTT7=
EXTT8=
EXTT9=
EXTT10=
EXTT11=
EXTT12=
EXTT13=
EXTT14=
EXTT15=
EXTT16=
EXTT17=
PLAYORDER=
